/* XPM */
static char *menu_cursor_xpm[] = {
/* columns rows colors chars-per-pixel */
"40 40 230 2 ",
"   c #FFFFFE",
".  c #022A1F",
"X  c #052522",
"o  c #092627",
"O  c #052822",
"+  c #022F23",
"@  c #042924",
"#  c #062925",
"$  c #012E24",
"%  c #092C25",
"&  c #082728",
"*  c #042A28",
"=  c #05292B",
"-  c #052A2B",
";  c #052B2C",
":  c #07292E",
">  c #042A2E",
",  c #062A2E",
"<  c #062D2C",
"1  c #072C2F",
"2  c #092828",
"3  c #092B29",
"4  c #0A2A2A",
"5  c #0C2A29",
"6  c #0C2C2A",
"7  c #082A2C",
"8  c #092B2C",
"9  c #082B2D",
"0  c #082A2F",
"q  c #0A2B2E",
"w  c #082C2D",
"e  c #0A2C2C",
"r  c #0B2D2E",
"t  c #0D2C2C",
"y  c #102825",
"u  c #122C24",
"i  c #132B2B",
"p  c #132C2B",
"a  c #132E2A",
"s  c #142E2B",
"d  c #11282D",
"f  c #033623",
"g  c #0D3126",
"h  c #023328",
"j  c #0C352B",
"k  c #08322C",
"l  c #083F28",
"z  c #093E2F",
"x  c #163329",
"c  c #14302D",
"v  c #1E352D",
"b  c #103B2C",
"n  c #082833",
"m  c #092F30",
"M  c #123131",
"N  c #113033",
"B  c #123032",
"V  c #123232",
"C  c #133232",
"Z  c #133233",
"A  c #143030",
"S  c #143333",
"D  c #133634",
"F  c #1D3732",
"G  c #1E3734",
"H  c #103C34",
"J  c #1F3A32",
"K  c #1C3A34",
"L  c #1C3738",
"P  c #23342D",
"I  c #213832",
"U  c #243933",
"Y  c #0A4B2E",
"T  c #0D482F",
"R  c #124229",
"E  c #0F5E2F",
"W  c #0E4A30",
"Q  c #0F483A",
"!  c #154337",
"~  c #174D35",
"^  c #184938",
"/  c #1E4A3D",
"(  c #0F5233",
")  c #0A5531",
"_  c #0C5236",
"`  c #0E5A35",
"'  c #0E5738",
"]  c #0F5739",
"[  c #175534",
"{  c #105E30",
"}  c #135E31",
"|  c #115835",
" . c #125934",
".. c #125836",
"X. c #145835",
"o. c #1C553D",
"O. c #16583B",
"+. c #175D3C",
"@. c #24493A",
"#. c #23533F",
"$. c #0D6330",
"%. c #0F6430",
"&. c #166236",
"*. c #116E35",
"=. c #176138",
"-. c #13653B",
";. c #13693C",
":. c #0F7039",
">. c #0F723B",
",. c #127138",
"<. c #13713B",
"1. c #107738",
"2. c #11743A",
"3. c #11753A",
"4. c #14753D",
"5. c #16743E",
"6. c #19743D",
"7. c #127C3E",
"8. c #137C3E",
"9. c #314646",
"0. c #255E47",
"q. c #295F45",
"w. c #3C544A",
"e. c #177243",
"r. c #177344",
"t. c #177445",
"y. c #187343",
"u. c #1A7541",
"i. c #1A7443",
"p. c #187344",
"a. c #187345",
"s. c #197345",
"d. c #1B7745",
"f. c #137F40",
"g. c #197944",
"h. c #197A44",
"j. c #1C7E44",
"k. c #1C7B48",
"l. c #216F46",
"z. c #206E47",
"x. c #247D48",
"c. c #425346",
"v. c #4B544E",
"b. c #12833E",
"n. c #12823F",
"m. c #16833F",
"M. c #12843E",
"N. c #13843E",
"B. c #12843F",
"V. c #13843F",
"C. c #13853F",
"Z. c #12863F",
"A. c #13863F",
"S. c #15843F",
"D. c #14853F",
"F. c #138240",
"G. c #138340",
"H. c #158140",
"J. c #158341",
"K. c #168341",
"L. c #148142",
"P. c #178142",
"I. c #178143",
"U. c #158342",
"Y. c #168342",
"T. c #178342",
"R. c #168343",
"E. c #138440",
"W. c #128540",
"Q. c #138540",
"!. c #138441",
"~. c #138541",
"^. c #118640",
"/. c #128640",
"(. c #138640",
"). c #128741",
"_. c #118442",
"`. c #138442",
"'. c #138543",
"]. c #148440",
"[. c #148540",
"{. c #148441",
"}. c #148541",
"|. c #168541",
" X c #148640",
".X c #148641",
"XX c #158641",
"oX c #148442",
"OX c #158542",
"+X c #168643",
"@X c #188341",
"#X c #188142",
"$X c #138840",
"%X c #138B40",
"&X c #158841",
"*X c #148C44",
"=X c #1B8E46",
"-X c #1E9247",
";X c #1C9148",
":X c #218B47",
">X c #25864C",
",X c #25874E",
"<X c #22884B",
"1X c #258C4D",
"2X c #229A4A",
"3X c #229C49",
"4X c #21984C",
"5X c #239B4D",
"6X c #2D8151",
"7X c #33945C",
"8X c #26A04F",
"9X c #26A24F",
"0X c #28A24F",
"qX c #29A24F",
"wX c #28A34F",
"eX c #28A350",
"rX c #2EA455",
"tX c #35A955",
"yX c #36A45B",
"uX c #36A55B",
"iX c #35A25C",
"pX c #33A65D",
"aX c #33A55F",
"sX c #37A55D",
"dX c #31B657",
"fX c #30B45A",
"gX c #39B25B",
"hX c #37A261",
"jX c #36B360",
"kX c #37B162",
/* pixels */
"                                                                                ",
"                                                                                ",
"                                                                                ",
"                                                                                ",
"                                                                                ",
"                                                                                ",
"                                                                                ",
"                                                                                ",
"                                                                                ",
"                                        I 4 y                                   ",
"                                      d ~ Y W X                                 ",
"                                      4  .{ E .                                 ",
"                                      r  .,.Q.{ z a                             ",
"                                      P ^ -.K.*.) R                             ",
"                                        K ' +X@X2.&.j                           ",
"                                        L ' Q.m.n.f. .H v.                      ",
"                                          / T D.+XK.4.` @.w.                    ",
"                                          a * K.Q.Q.+X2.O.!                     ",
"                    c M M M M M M S M M M r * K.+XQ.Q.G.6.( D                   ",
"                  u +.t.y.y.y.p.r.p.p.e.p.p.i.K.Q.M.Q.Q.K.4.X.g s               ",
"                  o ;.*XM.Q.+X+X+X+X+XM.+XQ.D.Q.Q.Q.Q.Q.+X7.%.+ m               ",
"                  4 >XfXM.M.M.M.M.+XM.M.M.+X+XQ.M.Q.Q.Q.Q.7.$.$ 1               ",
"                  & >XdXqXqXeXeX9X;X=X9X&XQ.+XQ.Q.+XQ.Q.+XG.2.h r               ",
"                  v 6XaXyXyXyXyXsX1X<XiXj.d.g.%X+XQ.Q.M.+XK.g.b F               ",
"                    % n 0 0 0 > * 1 > > 0 > O jX4X+X+X+Xn.:.k                   ",
"                                          S @ jX2X+XQ.D.p.o.                    ",
"                                          #.[ rX-XQ.K.,.0.9.                    ",
"                                        U l.tX%X+XQ.K.Q c.                      ",
"                                        G l.gXQ.M.k.l                           ",
"                                        q.x.qXQ.:.=.t                           ",
"                                      6 hX4XM.K._ x                             ",
"                                      0 aX3X@Xf                                 ",
"                                      i 7X:Xi.@                                 ",
"                                        J 0 5                                   ",
"                                                                                ",
"                                                                                ",
"                                                                                ",
"                                                                                ",
"                                                                                ",
"                                                                                "
};
