/* XPM */
const char * one_xpm[] = {
"24 32 2 1",      
"  c None", 
". c #FFFFFF",     
"                        ",
"        .....           ",
"       ......           ",
"      .......           ",
"     ........           ",
"    .........           ",
"        .....           ",
"        .....           ",
"        .....           ",
"        .....           ",
"        .....           ",
"        .....           ",
"        .....           ",
"        .....           ",
"        .....           ",
"        .....           ",
"        .....           ",
"        .....           ",
"        .....           ",
"        .....           ",
"        .....           ",
"                        ",
"                        ",
"                        ",
"                        ",
"                        ",
"                        ",
"                        ",
"                        ",
"                        ",
"                        ",
"                        ", 
"                        " 
};
